<?xml version="1.0" encoding="utf-8"?>
<!-- Generator: Adobe Illustrator 26.0.3, SVG Export Plug-In . SVG Version: 6.00 Build 0)  -->
<svg version="1.1" id="Camada_1" xmlns="http://www.w3.org/2000/svg" xmlns:xlink="http://www.w3.org/1999/xlink" x="0px" y="0px"
	 viewBox="0 0 460 185.3" style="enable-background:new 0 0 460 185.3;" xml:space="preserve">
<style type="text/css">
	.st0{fill:url(#SVGID_1_);}
	.st1{fill:url(#SVGID_00000094589285526875001110000005933377441648951714_);}
	.st2{fill:url(#SVGID_00000067920267000713459240000011266653220475986582_);}
	.st3{fill:url(#SVGID_00000129186273088457058190000009327787442129210253_);}
	.st4{fill:url(#SVGID_00000073722653421280237690000005464351597808439441_);}
	.st5{fill:url(#SVGID_00000048472480566376655310000016634008181705042857_);}
	.st6{fill:url(#SVGID_00000103957959786712482180000003905996977280251037_);}
	.st7{fill:url(#SVGID_00000123410308785504709440000005557327762267283888_);}
	.st8{fill:url(#SVGID_00000106141414727767422930000005295461578692856704_);}
	.st9{fill:url(#SVGID_00000114770546633147102610000007688042214194038206_);}
	.st10{fill:url(#SVGID_00000087410833599203337030000013520530626351911820_);}
	.st11{fill:url(#SVGID_00000014625657257069516340000006419110502299181503_);}
	.st12{fill:url(#SVGID_00000101813397989589948670000015547045067062596795_);}
	.st13{fill:url(#SVGID_00000081619361645371873340000018233993571841298819_);}
	.st14{fill:url(#SVGID_00000075854112358918852350000007074007199593181588_);}
	.st15{fill:url(#SVGID_00000118398382919557999460000017712412119753686173_);}
	.st16{fill:url(#SVGID_00000169540564189609385740000003985642368697455759_);}
	.st17{fill:url(#SVGID_00000037689796519261012070000011888785591476829615_);}
	.st18{fill:url(#SVGID_00000163781752749789189950000006187100952614185126_);}
	.st19{fill:url(#SVGID_00000004525885826817024640000003507215305428777612_);}
	.st20{fill:url(#SVGID_00000056394860277326144390000000154289035654006703_);}
	.st21{fill:url(#SVGID_00000134931064200211231750000005073008291962580384_);}
	.st22{fill:url(#SVGID_00000038414477853685326680000007454974424438885525_);}
	.st23{fill:url(#SVGID_00000124867682550827010880000014083044395391952786_);}
	.st24{fill:url(#SVGID_00000001629364297427626960000014017095324600990115_);}
	.st25{fill:url(#SVGID_00000115502686789727102890000005970790766963606697_);}
	.st26{fill:url(#SVGID_00000128459060336666056420000011654835947001857457_);}
	.st27{fill:url(#SVGID_00000013171529540492743190000010346055315225707149_);}
	.st28{fill:url(#SVGID_00000178901530320828623840000001045047967467822514_);}
	.st29{fill:url(#SVGID_00000083053628348427145640000017267868893340810373_);}
</style>
<g>
	<g>
		<g>
			<g>
				<linearGradient id="SVGID_1_" gradientUnits="userSpaceOnUse" x1="383.1438" y1="54.367" x2="387.5577" y2="54.367">
					<stop  offset="0.3879" style="stop-color:#FFFFFF"/>
					<stop  offset="0.7333" style="stop-color:#DDDDDD"/>
					<stop  offset="1" style="stop-color:#DDDDDD"/>
				</linearGradient>
				<path class="st0" d="M384,52.7c-2.1,3.4,0.2,5.6,0.2,5.6c-1.1-2.7,3.1-4.4,3.3-7.1C387.7,49.8,385.7,50.1,384,52.7z"/>
				
					<linearGradient id="SVGID_00000082339508885860395500000002552431941748036998_" gradientUnits="userSpaceOnUse" x1="391.8263" y1="37.5664" x2="425.6309" y2="37.5664">
					<stop  offset="0.3879" style="stop-color:#FFFFFF"/>
					<stop  offset="0.7333" style="stop-color:#DDDDDD"/>
					<stop  offset="1" style="stop-color:#DDDDDD"/>
				</linearGradient>
				<path style="fill:url(#SVGID_00000082339508885860395500000002552431941748036998_);" d="M413.4,34.8
					c2.2,5.6-0.6,11.3,12.2,17.1c-17-9,12.8-24.9-33.8-28.6C401.5,25.4,410.7,28.1,413.4,34.8z"/>
				
					<linearGradient id="SVGID_00000000202561842620276790000006879265550356886690_" gradientUnits="userSpaceOnUse" x1="324.9229" y1="40.0317" x2="424.8429" y2="40.0317">
					<stop  offset="0.3879" style="stop-color:#FFFFFF"/>
					<stop  offset="0.7333" style="stop-color:#DDDDDD"/>
					<stop  offset="1" style="stop-color:#DDDDDD"/>
				</linearGradient>
				<path style="fill:url(#SVGID_00000000202561842620276790000006879265550356886690_);" d="M380.6,35.5c9.6,0.6,19.3,3,30.2,10
					c11,7.1,14,7,14,7c-26-11.5-41.2-40.2-70.8-15c-10.8,9.2-29.1,0.7-29.1,0.7s3.7,2,8.3,3.3c4.6,1.3,13.1,2.9,22.1-0.8
					C364.2,37.1,371,35,380.6,35.5z"/>
				
					<linearGradient id="SVGID_00000083791027709073114810000009638687360304439448_" gradientUnits="userSpaceOnUse" x1="356.6778" y1="53.6589" x2="356.7257" y2="53.6589">
					<stop  offset="0.3879" style="stop-color:#FFFFFF"/>
					<stop  offset="0.7333" style="stop-color:#DDDDDD"/>
					<stop  offset="1" style="stop-color:#DDDDDD"/>
				</linearGradient>
				<path style="fill:url(#SVGID_00000083791027709073114810000009638687360304439448_);" d="M356.7,53.7
					C356.7,53.7,356.7,53.7,356.7,53.7C356.7,53.7,356.7,53.7,356.7,53.7z"/>
				
					<linearGradient id="SVGID_00000094584420145895558420000008317513468251049348_" gradientUnits="userSpaceOnUse" x1="356.7257" y1="57.0868" x2="379.3448" y2="57.0868">
					<stop  offset="0.3879" style="stop-color:#FFFFFF"/>
					<stop  offset="0.7333" style="stop-color:#DDDDDD"/>
					<stop  offset="1" style="stop-color:#DDDDDD"/>
				</linearGradient>
				<path style="fill:url(#SVGID_00000094584420145895558420000008317513468251049348_);" d="M370.7,58.7c3.8,0.3,8.7,1.8,8.7,1.8
					c-7.2-2.7-7.6-7.2-17.9-6.9c-3.7,0.1-4.5,0-4.7,0c0.3,0.1,2.3,0.7,4,2.3C362.5,57.6,366.9,58.4,370.7,58.7z"/>
				
					<linearGradient id="SVGID_00000046313565235222813410000001405298370922264984_" gradientUnits="userSpaceOnUse" x1="387.714" y1="52.3227" x2="397.9945" y2="52.3227">
					<stop  offset="0.3879" style="stop-color:#FFFFFF"/>
					<stop  offset="0.7333" style="stop-color:#DDDDDD"/>
					<stop  offset="1" style="stop-color:#DDDDDD"/>
				</linearGradient>
				<path style="fill:url(#SVGID_00000046313565235222813410000001405298370922264984_);" d="M391.5,53.1c-0.9,0-1.6,0.5-1.8,1
					c-0.3,1.5,2.6,2.1,4.7,1.4c0.9-0.3,1.7-0.8,2.3-1.3c0.5-0.5,0.9-1.1,1.1-1.6c0.2-0.6,0.1-1.2-0.2-1.7c-0.3-0.6-1-1.1-1.9-1.4
					c-3.9-1.5-8.1,1-8.1,1.1c2-0.6,6.8-1.1,8.1,1.1c0.2,0.3,0.2,0.7,0.1,1c-0.1,0.4-0.4,0.7-0.7,1c-0.4,0.3-0.9,0.6-1.4,0.8
					c-0.7,0.2-1.4,0.2-1.9,0.1c-0.3-0.1-0.5-0.2-0.7-0.3c-0.1-0.1-0.2-0.3-0.2-0.4C391,53.5,391.1,53.3,391.5,53.1z"/>
				
					<linearGradient id="SVGID_00000023970246937874354110000002581901127530776725_" gradientUnits="userSpaceOnUse" x1="357.4307" y1="53.8294" x2="460.0176" y2="53.8294">
					<stop  offset="0.3879" style="stop-color:#FFFFFF"/>
					<stop  offset="0.7333" style="stop-color:#DDDDDD"/>
					<stop  offset="1" style="stop-color:#DDDDDD"/>
				</linearGradient>
				<path style="fill:url(#SVGID_00000023970246937874354110000002581901127530776725_);" d="M460,35.9c0.1-0.7-10.2-0.2-19.1,7.1
					c-4.3,3.4-7.6,7.6-11.5,11.7l0,0c-3.2,3.2-7,6.2-12.2,8.4c-11.8,5.1-18.2,3.7-24.3,2.4c-6.1-1.3-14.8-6.3-23.6-6.2
					c-8.8,0.1-11.9,5.2-11.9,5.2s8.9-10,24.9,0.4c16,10.4,28.2,6.8,30,4c3.6,0.7,8.8,2.1,16-5.5c2.8-2.5,4.5-5.4,6-8.2c0,0,0,0,0,0
					c0-0.1,0.1-0.2,0.1-0.2c0,0,0,0,0,0l0,0C438.6,46.7,442.3,38.7,460,35.9z"/>
			</g>
		</g>
	</g>
	<g>
		
			<linearGradient id="SVGID_00000163068378661068606460000005989139765321709718_" gradientUnits="userSpaceOnUse" x1="0.419" y1="76.966" x2="149.7974" y2="76.966">
			<stop  offset="0.3879" style="stop-color:#FFFFFF"/>
			<stop  offset="0.7333" style="stop-color:#DDDDDD"/>
			<stop  offset="1" style="stop-color:#DDDDDD"/>
		</linearGradient>
		<path style="fill:url(#SVGID_00000163068378661068606460000005989139765321709718_);" d="M134.4,25.2C120,8,100.9,0,76.2,0
			C55.6,0,39.5,6,27.7,18C17.6,28.4,12.5,41.1,12.5,56.3c0,2.3,0,4,0,5.1C9.1,66.6,6.9,70.1,6,71.8c-3.7,6.9-5.6,14.5-5.6,22.6
			c0,6.4,2,13.9,6.1,22.4l1.7-1.1C4.4,106,2.5,99,2.5,94.4c0-10.9,3.5-20.8,10.6-29.8c1.6,6.3,4.1,11.9,7.4,16.9
			C28,92.8,38.2,98.4,51.2,98.4c7.1,0,13.5-2.5,19.1-7.5c5.7-5,8.5-10.9,8.5-17.9c0-7.8-3.3-14.5-9.8-19.9
			c-6.5-5.5-14.8-8.2-24.7-8.2c-9.4,0-19.3,4.7-29.8,14c0-0.5,0-1.1,0-1.9c0-0.9,0-1.5,0-1.9c0-12.3,4.3-23.4,12.9-33.3
			C38.9,8.7,55.1,2.1,76.2,2.1c18.7,0,34.6,5.6,47.8,16.9c4.2,3.5,6.3,5.9,6.4,7l-8,4.6C106.4,39.7,91.6,58,78,85.4
			c-2.9,5.7-7.3,16.3-13.1,31.9c-3.9,10.3-7.2,16.3-9.9,18c-5.1-3.4-8.8-5.8-11.4-7.2c-6.4-3.5-12.6-5.3-18.6-5.3
			c-5.3,0-9.6,1.3-13,4c-3.3,2.7-5,6-5,9.9c0,5.3,2.2,9.5,6.7,12.6c4.5,3.1,10.4,4.6,17.7,4.6c9.9,0,19.1-3.1,27.9-9.3
			c8.8,6.1,18.1,9.2,27.9,9.3c15.9,0.1,30.3-8.5,43.2-25.8c12.9-17.3,19.3-35.4,19.3-54.3c0-17.7-12.5-45.7-12.7-45.6
			c1.8-0.7,5.4-1.5,9-2.1c0.2-1.1,0.5-2.1,1.1-3.1C142.6,23.3,138.2,23.9,134.4,25.2z M44.6,47c8.5,0,15.7,2.2,21.8,6.5
			c7,5,10.4,11.5,10.4,19.6c0,6.3-2.6,11.8-7.9,16.4c-5.2,4.6-11.1,6.8-17.5,6.8c-9.7,0-17.8-3.4-24.3-10.1c-5.7-6-9.7-14-11.9-24
			C24.9,52.1,34.7,47,44.6,47z M27,150.5c-4.7,0-8.6-1.3-11.8-4c-3.2-2.7-4.8-5.9-4.8-9.9c0-3.3,1.1-6,3.3-8.1
			c2.2-2.1,5.1-3.2,8.6-3.2c7.6,0.1,14.9,2.3,21.8,6.4c3.3,2,5.9,4,8,6.1C42.4,146.3,34,150.5,27,150.5z M138,43.2
			c1.3,6.4,1.9,11.6,1.9,15.4c0,19-5.5,38-16.5,57.1c-12.8,21.9-27.9,32.8-45.5,32.8c-2.5,0-7.7-2.2-15.4-6.6
			c7.5-6.2,11.9-10.2,13.5-12.1c6.1-7.3,11.1-16.7,15.2-28.2c3.5-10.7,6.1-18.8,7.8-24.3c7.8-24.5,19.5-40.5,34.1-47.6
			C135.1,30.7,136.4,35.4,138,43.2z"/>
		
			<linearGradient id="SVGID_00000170968041992411012610000002110654636789076357_" gradientUnits="userSpaceOnUse" x1="240.3936" y1="81.7895" x2="329.8487" y2="81.7895">
			<stop  offset="0.3879" style="stop-color:#FFFFFF"/>
			<stop  offset="0.7333" style="stop-color:#DDDDDD"/>
			<stop  offset="1" style="stop-color:#DDDDDD"/>
		</linearGradient>
		<path style="fill:url(#SVGID_00000170968041992411012610000002110654636789076357_);" d="M282.4,129
			c-9.6,12.1-17.7,18.1-24.3,18.1c-2.9,0-4.3-1.7-4.3-4.9c0-7.1,2.1-15.4,6.4-24.7l9.9-21.6c18.4-10.7,33.5-24.9,45.3-42.7
			c9.5-14.2,14.3-25.3,14.4-33.4c0-1.9-0.7-3.6-2-5.1c-1.3-1.5-2.8-2.3-4.4-2.3c-7.7,0-19.9,10.7-36.5,32
			c-12.1,15.5-21.8,29.8-29.3,42.9c-11.5,20.3-17.3,36-17.3,47c0,5.2,1.1,9.4,3.3,12.6c2.2,3.2,5.2,4.7,8.9,4.5
			c10-0.4,19.9-6.3,29.7-17.7c0.9-1,1.8-2.2,2.7-3.4c0.8-2.8,1.9-5.7,3.4-8.9C286.4,123.8,284.5,126.4,282.4,129z M297.2,43.9
			c10.8-18.1,17.8-27.2,20.9-27.2c1.9,0,2.9,1.4,2.9,4.3c0,6.6-4.5,17.3-13.6,32.2c-10.4,17.2-21.4,29.1-33,35.9
			C278.8,77,286.4,62,297.2,43.9z"/>
		
			<linearGradient id="SVGID_00000037689382709044497360000006396085434268508063_" gradientUnits="userSpaceOnUse" x1="313.7052" y1="76.4397" x2="331.6378" y2="76.4397">
			<stop  offset="0.3879" style="stop-color:#FFFFFF"/>
			<stop  offset="0.7333" style="stop-color:#DDDDDD"/>
			<stop  offset="1" style="stop-color:#DDDDDD"/>
		</linearGradient>
		<path style="fill:url(#SVGID_00000037689382709044497360000006396085434268508063_);" d="M324.2,67.1c-2.8,0-5.2,1.1-7.3,3.2
			c-2.1,2.1-3.2,4.6-3.2,7.5c0,2.2,0.8,4.1,2.3,5.7c1.5,1.6,3.4,2.4,5.6,2.4c2.6,0,4.9-1.2,7-3.6c2.1-2.4,3.1-5.1,3.1-8.1
			c0-1.9-0.7-3.6-2.2-5C328,67.7,326.3,67.1,324.2,67.1z"/>
		
			<linearGradient id="SVGID_00000103962727455398876130000006231053445425254785_" gradientUnits="userSpaceOnUse" x1="283.4737" y1="119.8161" x2="346.6788" y2="119.8161">
			<stop  offset="0.3879" style="stop-color:#FFFFFF"/>
			<stop  offset="0.7333" style="stop-color:#DDDDDD"/>
			<stop  offset="1" style="stop-color:#DDDDDD"/>
		</linearGradient>
		<path style="fill:url(#SVGID_00000103962727455398876130000006231053445425254785_);" d="M325.9,126.7
			c-13.5,13.6-21.8,20.4-24.9,20.4c-3.2,0-4.7-1.8-4.7-5.4c0-2.9,0.6-5.5,1.9-7.8L320,92.3c-0.7,0.1-4.4-2.4-5.7-3
			c-1.3-0.6-2.9-0.9-4.8-0.9c-2.1,0-3.9,1.4-5.6,4.3c-5.6,10.2-9.9,17.8-12.8,22.9c-1.1,2-2,3.8-2.8,5.6c-1.5,3.2-2.6,6.2-3.4,8.9
			c-0.9,3.3-1.4,6.3-1.4,8.9c0,8.1,4.3,12.2,12.8,12.2c8.2,0,23.6-12.8,46.1-38.4l4.4-8.4C341.6,110.5,334.7,117.9,325.9,126.7z"/>
		
			<linearGradient id="SVGID_00000019640240998360327660000001546365720354678152_" gradientUnits="userSpaceOnUse" x1="320.9825" y1="120.1237" x2="430.0255" y2="120.1237">
			<stop  offset="0.3879" style="stop-color:#FFFFFF"/>
			<stop  offset="0.7333" style="stop-color:#DDDDDD"/>
			<stop  offset="1" style="stop-color:#DDDDDD"/>
		</linearGradient>
		<path style="fill:url(#SVGID_00000019640240998360327660000001546365720354678152_);" d="M428.4,102l-30.3,33.4
			c-7.4,8.2-13.1,12.4-17.1,12.4c-2.9,0-4.3-1.2-4.3-3.7c0-0.8,1.2-3.2,3.7-7l19.2-29.9c2.6-4.1,3.9-7.8,3.9-11.1
			c0-6.3-3.2-9.5-9.5-9.5c-7.4,0-17.7,5.8-30.9,17.3l6.5-12.2c-0.8,0.4-5.1-1.9-6.8-2.5c-1.7-0.5-3.1-0.8-4-0.8
			c-2.3,0-4.4,1.6-6.2,4.9l-5.8,11.2l-4.4,8.4L321,153.7c4-4,6.5-6,7.6-6c0.4,0,1.6,0.3,3.6,0.8c2,0.6,3.3,0.8,4,0.8
			c2.1,0,4.3-2.3,6.8-7c3.4-6.3,6-11.1,7.8-14.4c4.1-7.1,9.2-14.2,15.3-21.2c8.5-9.6,15.4-14.4,20.6-14.4c2.1,0,3.1,0.6,3.1,1.9
			c0,1.2-1,3.3-2.9,6.2l-17.1,26.2c-3,4.7-4.5,8.9-4.3,12.6c0.4,8.2,4.4,12.4,12,12.4c6.5,0,13.4-4.1,20.8-12.4
			c19.1-21.3,29.7-33.2,31.7-35.7L428.4,102z"/>
		<g>
			
				<linearGradient id="SVGID_00000157299100754888760090000015740870120142954671_" gradientUnits="userSpaceOnUse" x1="158.6411" y1="81.2117" x2="289.562" y2="81.2117">
				<stop  offset="0.3879" style="stop-color:#FFFFFF"/>
				<stop  offset="0.7333" style="stop-color:#DDDDDD"/>
				<stop  offset="1" style="stop-color:#DDDDDD"/>
			</linearGradient>
			<path style="fill:url(#SVGID_00000157299100754888760090000015740870120142954671_);" d="M267.8,11.6
				c-19.5,1.6-41.1,10.3-65.1,26.3c-1.1,0-16.6-1.4-32.5-2.8c-0.5,0.9-1,1.8-1.6,2.8c14.4,1.4,29.1,2.7,31.7,2.7
				c-8,5.5-15.9,13.5-23.9,24c-13,17.2-18.8,33.8-17.5,50c1.4,17.7,8.9,29.2,22.4,34.6c2.5,1.1,3.4,1.4,7.2,1.8c1.6,0,3,0.1,3.9,0
				c13.4-1.1,25.7-8.7,36.7-22.8c11.1-14.1,16.1-28,15-41.5c-0.5-5.9-2.3-10.4-5.4-13.5c-3.1-3.1-7.3-4.5-12.3-4.1
				c-15.5,1.2-28.3,10.2-38.4,26.9c-8.5,14.1-12.3,27.5-11.3,40.2c0.1,1.6,0.2,2.8,0.3,3.5c-3.3-2.9-5-6.9-5.3-12
				c-0.4-7.3,1.3-16.1,5.3-26.5c4.7-12.1,10.3-22.3,16.8-30.7c8.7-11.3,16.9-20.7,24.4-28c18.8,1.1,32.1,1.4,39.8,0.7
				c7.7-0.6,14.5-2.4,20.5-5.4c7.9-4.1,11.7-9.4,11.1-16C288.9,13.9,281.6,10.5,267.8,11.6z M191.5,96.5
				c9.2-14.7,19.4-22.4,30.8-23.4c9-0.7,13.9,3.5,14.7,12.7c0.8,10.1-3.5,22.4-13,36.8c-10.1,15.4-20.8,23.6-32.2,24.5
				c-2.9,0.2-5.8-0.4-8.6-2c-1.8-4-2.9-7.5-3.1-10.5C179.1,122.8,182.9,110.1,191.5,96.5z M257.8,40.9c-6.7,0.5-18.5,0.2-35.4-0.9
				c18.8-16.5,34-25.3,45.7-26.2c12.3-1,18.8,1.7,19.3,8.2C288.1,33,278.3,39.3,257.8,40.9z"/>
			
				<linearGradient id="SVGID_00000150100279854701727780000017322250635647791247_" gradientUnits="userSpaceOnUse" x1="151.2183" y1="32.6975" x2="168.2091" y2="32.6975">
				<stop  offset="0.3879" style="stop-color:#FFFFFF"/>
				<stop  offset="0.7333" style="stop-color:#DDDDDD"/>
				<stop  offset="1" style="stop-color:#DDDDDD"/>
			</linearGradient>
			<path style="fill:url(#SVGID_00000150100279854701727780000017322250635647791247_);" d="M168.2,25.2c0-2-0.7-3.8-2.2-5.2
				c-1.4-1.4-3.1-2.2-5-2.2c-2.3,0-4.4,1-6.2,3c-0.6,0.7-1.1,1.4-1.5,2.2c-0.5,1-0.9,2-1.1,3.1c-0.1,0.5-0.1,1-0.1,1.6
				c0,2.6,1.4,4.8,4.1,6.6c0.6,0.4,1.3,0.8,2.1,1.2c0.7,0.3,1.1,1,1.1,1.9c0,0.1,0,0.1,0,0.2c0,1.9-1.7,4.1-5,6.4
				c-0.7,0.4-1.5,0.8-2.2,1.1c-0.7,0.3-1,0.7-1,1.3c0,0.5,0.5,0.9,1.4,1.1c2.1,0,4.6-1.5,7.4-4.6c1.5-1.7,2.8-3.3,3.9-5
				c0.6-0.9,1.1-1.8,1.6-2.8C167.3,31.8,168.2,28.5,168.2,25.2z"/>
		</g>
	</g>
	<g>
		
			<linearGradient id="SVGID_00000161614382461612288320000007560306313266121905_" gradientUnits="userSpaceOnUse" x1="103.107" y1="173.9013" x2="110.3746" y2="173.9013">
			<stop  offset="0.3879" style="stop-color:#FFFFFF"/>
			<stop  offset="0.7333" style="stop-color:#DDDDDD"/>
			<stop  offset="1" style="stop-color:#DDDDDD"/>
		</linearGradient>
		<path style="fill:url(#SVGID_00000161614382461612288320000007560306313266121905_);" d="M103.1,181.2v-14.7h7.3v1.3h-5.9v4.6h5.9
			v1.3h-5.9v6.3h5.9v1.3H103.1z"/>
		
			<linearGradient id="SVGID_00000052822843469238173470000014776978851219373205_" gradientUnits="userSpaceOnUse" x1="114.5714" y1="173.9231" x2="122.9405" y2="173.9231">
			<stop  offset="0.3879" style="stop-color:#FFFFFF"/>
			<stop  offset="0.7333" style="stop-color:#DDDDDD"/>
			<stop  offset="1" style="stop-color:#DDDDDD"/>
		</linearGradient>
		<path style="fill:url(#SVGID_00000052822843469238173470000014776978851219373205_);" d="M114.6,178.8l1.1-0.6
			c0.2,0.7,0.6,1.3,1.1,1.7c0.5,0.4,1.2,0.6,1.9,0.6c0.9,0,1.7-0.3,2.2-0.8c0.5-0.5,0.8-1.3,0.8-2.3c0-0.7-0.2-1.3-0.5-1.8
			c-0.4-0.5-1.1-1-2.3-1.6c-1.5-0.8-2.5-1.5-2.9-2.1c-0.5-0.6-0.7-1.3-0.7-2.1c0-1,0.4-1.9,1.1-2.5c0.7-0.7,1.6-1,2.7-1
			c0.7,0,1.4,0.2,1.9,0.5c0.5,0.3,1,0.8,1.3,1.4l-1,0.6c-0.2-0.4-0.5-0.7-0.9-1c-0.4-0.2-0.9-0.3-1.4-0.3c-0.7,0-1.3,0.2-1.7,0.6
			c-0.4,0.4-0.6,1-0.6,1.7c0,1,0.8,2,2.5,2.9c0.3,0.2,0.5,0.3,0.7,0.4c1.3,0.7,2.1,1.3,2.5,2c0.4,0.6,0.6,1.4,0.6,2.4
			c0,1.3-0.4,2.4-1.2,3.1c-0.8,0.8-1.8,1.2-3.1,1.2c-1,0-1.8-0.2-2.5-0.7C115.5,180.4,115,179.7,114.6,178.8z"/>
		
			<linearGradient id="SVGID_00000021096195391303573910000001493680316119768219_" gradientUnits="userSpaceOnUse" x1="126.5367" y1="173.9013" x2="135.9571" y2="173.9013">
			<stop  offset="0.3879" style="stop-color:#FFFFFF"/>
			<stop  offset="0.7333" style="stop-color:#DDDDDD"/>
			<stop  offset="1" style="stop-color:#DDDDDD"/>
		</linearGradient>
		<path style="fill:url(#SVGID_00000021096195391303573910000001493680316119768219_);" d="M130.6,181.2v-13.4h-4v-1.3h9.4v1.3h-4.1
			v13.4H130.6z"/>
		
			<linearGradient id="SVGID_00000020389568627823208900000017607915849705703813_" gradientUnits="userSpaceOnUse" x1="140.2227" y1="171.426" x2="147.4884" y2="171.426">
			<stop  offset="0.3879" style="stop-color:#FFFFFF"/>
			<stop  offset="0.7333" style="stop-color:#DDDDDD"/>
			<stop  offset="1" style="stop-color:#DDDDDD"/>
		</linearGradient>
		<path style="fill:url(#SVGID_00000020389568627823208900000017607915849705703813_);" d="M140.2,181.2v-14.7h7.3v1.3h-5.9v4.6h5.9
			v1.3h-5.9v6.3h5.9v1.3H140.2z M142.5,165.1l2.1-3.5h1.6l-2.8,3.5H142.5z"/>
		
			<linearGradient id="SVGID_00000172403167011546976910000010895030630990397353_" gradientUnits="userSpaceOnUse" x1="151.3751" y1="173.9013" x2="160.7931" y2="173.9013">
			<stop  offset="0.3879" style="stop-color:#FFFFFF"/>
			<stop  offset="0.7333" style="stop-color:#DDDDDD"/>
			<stop  offset="1" style="stop-color:#DDDDDD"/>
		</linearGradient>
		<path style="fill:url(#SVGID_00000172403167011546976910000010895030630990397353_);" d="M155.4,181.2v-13.4h-4v-1.3h9.4v1.3h-4
			v13.4H155.4z"/>
		
			<linearGradient id="SVGID_00000036231042762395284060000009267962674125820583_" gradientUnits="userSpaceOnUse" x1="165.0606" y1="173.9013" x2="166.3946" y2="173.9013">
			<stop  offset="0.3879" style="stop-color:#FFFFFF"/>
			<stop  offset="0.7333" style="stop-color:#DDDDDD"/>
			<stop  offset="1" style="stop-color:#DDDDDD"/>
		</linearGradient>
		<path style="fill:url(#SVGID_00000036231042762395284060000009267962674125820583_);" d="M165.1,181.2v-14.7h1.3v14.7H165.1z"/>
		
			<linearGradient id="SVGID_00000117669528411951709350000013896782951983082917_" gradientUnits="userSpaceOnUse" x1="171.4151" y1="173.9331" x2="183.9112" y2="173.9331">
			<stop  offset="0.3879" style="stop-color:#FFFFFF"/>
			<stop  offset="0.7333" style="stop-color:#DDDDDD"/>
			<stop  offset="1" style="stop-color:#DDDDDD"/>
		</linearGradient>
		<path style="fill:url(#SVGID_00000117669528411951709350000013896782951983082917_);" d="M183.9,169.3c-0.7-0.6-1.5-1.1-2.2-1.4
			c-0.8-0.3-1.6-0.5-2.4-0.5c-1.9,0-3.4,0.6-4.6,1.8c-1.2,1.2-1.8,2.8-1.8,4.7c0,1,0.1,1.8,0.4,2.6c0.3,0.8,0.7,1.5,1.3,2.1
			c0.6,0.6,1.3,1,2,1.3c0.8,0.3,1.6,0.5,2.4,0.5c0.8,0,1.7-0.1,2.5-0.4c0.8-0.3,1.6-0.7,2.3-1.3v1.6c-0.7,0.4-1.5,0.8-2.3,1
			c-0.8,0.2-1.6,0.4-2.4,0.4c-1.1,0-2.1-0.2-3-0.6c-1-0.4-1.8-0.9-2.5-1.6c-0.7-0.7-1.3-1.5-1.6-2.5c-0.4-0.9-0.5-2-0.5-3.1
			c0-1.1,0.2-2.1,0.6-3.1c0.4-1,0.9-1.8,1.6-2.5c0.7-0.7,1.5-1.2,2.5-1.6c1-0.4,2-0.6,3-0.6c0.9,0,1.8,0.1,2.6,0.4
			c0.8,0.3,1.5,0.6,2.2,1.2L183.9,169.3z"/>
		
			<linearGradient id="SVGID_00000061464054251811003680000007980251154837570969_" gradientUnits="userSpaceOnUse" x1="186.8258" y1="173.611" x2="199.44" y2="173.611">
			<stop  offset="0.3879" style="stop-color:#FFFFFF"/>
			<stop  offset="0.7333" style="stop-color:#DDDDDD"/>
			<stop  offset="1" style="stop-color:#DDDDDD"/>
		</linearGradient>
		<path style="fill:url(#SVGID_00000061464054251811003680000007980251154837570969_);" d="M186.8,181.2l6.4-15.3l6.2,15.3H198
			l-1.9-5h-6l-1.9,5H186.8z M190.6,175.1h5.1l-2.5-6.4L190.6,175.1z"/>
		
			<linearGradient id="SVGID_00000115498571137308408530000006057544872001968036_" gradientUnits="userSpaceOnUse" x1="209.0997" y1="173.611" x2="221.7169" y2="173.611">
			<stop  offset="0.3879" style="stop-color:#FFFFFF"/>
			<stop  offset="0.7333" style="stop-color:#DDDDDD"/>
			<stop  offset="1" style="stop-color:#DDDDDD"/>
		</linearGradient>
		<path style="fill:url(#SVGID_00000115498571137308408530000006057544872001968036_);" d="M209.1,181.2l6.4-15.3l6.2,15.3h-1.5
			l-1.9-5h-6l-1.9,5H209.1z M212.8,175.1h5.1l-2.5-6.4L212.8,175.1z"/>
		
			<linearGradient id="SVGID_00000115510827320555685750000007692675547402627761_" gradientUnits="userSpaceOnUse" x1="223.0479" y1="174.1897" x2="234.7179" y2="174.1897">
			<stop  offset="0.3879" style="stop-color:#FFFFFF"/>
			<stop  offset="0.7333" style="stop-color:#DDDDDD"/>
			<stop  offset="1" style="stop-color:#DDDDDD"/>
		</linearGradient>
		<path style="fill:url(#SVGID_00000115510827320555685750000007692675547402627761_);" d="M228.8,181.8l-5.7-15.2h1.5l4.2,11.9
			l4.5-11.9h1.5L228.8,181.8z"/>
		
			<linearGradient id="SVGID_00000062165731141999291940000015315938697050576282_" gradientUnits="userSpaceOnUse" x1="236.0421" y1="173.611" x2="248.6593" y2="173.611">
			<stop  offset="0.3879" style="stop-color:#FFFFFF"/>
			<stop  offset="0.7333" style="stop-color:#DDDDDD"/>
			<stop  offset="1" style="stop-color:#DDDDDD"/>
		</linearGradient>
		<path style="fill:url(#SVGID_00000062165731141999291940000015315938697050576282_);" d="M236,181.2l6.4-15.3l6.2,15.3h-1.5
			l-1.9-5h-6l-1.9,5H236z M239.8,175.1h5.1l-2.5-6.4L239.8,175.1z"/>
		
			<linearGradient id="SVGID_00000182490998437586578980000017370794943193336236_" gradientUnits="userSpaceOnUse" x1="252.3526" y1="173.8093" x2="263.9913" y2="173.8093">
			<stop  offset="0.3879" style="stop-color:#FFFFFF"/>
			<stop  offset="0.7333" style="stop-color:#DDDDDD"/>
			<stop  offset="1" style="stop-color:#DDDDDD"/>
		</linearGradient>
		<path style="fill:url(#SVGID_00000182490998437586578980000017370794943193336236_);" d="M252.4,181.2v-15.3l10.4,12.3v-11.7h1.2
			v15.1l-10.4-12.3v11.9H252.4z"/>
		
			<linearGradient id="SVGID_00000118357036370686830740000003608251580728726182_" gradientUnits="userSpaceOnUse" x1="269.0108" y1="175.8227" x2="281.503" y2="175.8227">
			<stop  offset="0.3879" style="stop-color:#FFFFFF"/>
			<stop  offset="0.7333" style="stop-color:#DDDDDD"/>
			<stop  offset="1" style="stop-color:#DDDDDD"/>
		</linearGradient>
		<path style="fill:url(#SVGID_00000118357036370686830740000003608251580728726182_);" d="M281.5,169.3c-0.7-0.6-1.5-1.1-2.2-1.4
			c-0.8-0.3-1.6-0.5-2.4-0.5c-1.9,0-3.4,0.6-4.6,1.8c-1.2,1.2-1.8,2.8-1.8,4.7c0,1,0.1,1.8,0.4,2.6c0.3,0.8,0.7,1.5,1.3,2.1
			c0.6,0.6,1.3,1,2,1.3c0.8,0.3,1.6,0.5,2.4,0.5c0.8,0,1.7-0.1,2.5-0.4c0.8-0.3,1.6-0.7,2.3-1.3v1.6c-0.7,0.4-1.5,0.8-2.3,1
			c-0.8,0.2-1.6,0.4-2.4,0.4c-1.1,0-2.1-0.2-3-0.6c-1-0.4-1.8-0.9-2.5-1.6c-0.7-0.7-1.3-1.5-1.6-2.5c-0.4-0.9-0.5-2-0.5-3.1
			c0-1.1,0.2-2.1,0.6-3.1c0.4-1,0.9-1.8,1.6-2.5c0.7-0.7,1.5-1.2,2.5-1.6c1-0.4,2-0.6,3-0.6c0.9,0,1.8,0.1,2.6,0.4
			c0.8,0.3,1.5,0.6,2.2,1.2L281.5,169.3z M274.4,185v-0.7c0.7,0.1,1.1,0.2,1.5,0.3c0.3,0,0.6,0.1,0.8,0.1c0.4,0,0.7-0.1,0.9-0.2
			c0.2-0.1,0.3-0.4,0.3-0.7c0-0.3-0.1-0.5-0.4-0.7c-0.2-0.1-0.6-0.2-1.1-0.2c0,0-0.1,0-0.2,0c-0.1,0-0.2,0-0.2,0v-1.7h0.6v1h0.1
			c0.7,0,1.2,0.1,1.6,0.4c0.4,0.3,0.6,0.6,0.6,1.1c0,0.5-0.2,1-0.5,1.2c-0.4,0.3-0.9,0.4-1.6,0.4c-0.3,0-0.7,0-1.1-0.1
			C275.3,185.3,274.9,185.2,274.4,185z"/>
		
			<linearGradient id="SVGID_00000053533295677630975960000001758764681059466160_" gradientUnits="userSpaceOnUse" x1="284.4181" y1="173.611" x2="297.0372" y2="173.611">
			<stop  offset="0.3879" style="stop-color:#FFFFFF"/>
			<stop  offset="0.7333" style="stop-color:#DDDDDD"/>
			<stop  offset="1" style="stop-color:#DDDDDD"/>
		</linearGradient>
		<path style="fill:url(#SVGID_00000053533295677630975960000001758764681059466160_);" d="M284.4,181.2l6.4-15.3l6.2,15.3h-1.5
			l-1.9-5h-6l-1.9,5H284.4z M288.2,175.1h5.1l-2.5-6.4L288.2,175.1z"/>
		
			<linearGradient id="SVGID_00000075152669528106627420000002465643511724381833_" gradientUnits="userSpaceOnUse" x1="300.7286" y1="173.9013" x2="312.0655" y2="173.9013">
			<stop  offset="0.3879" style="stop-color:#FFFFFF"/>
			<stop  offset="0.7333" style="stop-color:#DDDDDD"/>
			<stop  offset="1" style="stop-color:#DDDDDD"/>
		</linearGradient>
		<path style="fill:url(#SVGID_00000075152669528106627420000002465643511724381833_);" d="M300.7,181.2v-14.7h2.3
			c2,0,3.5,0.1,4.3,0.3c0.9,0.2,1.6,0.5,2.2,1c0.8,0.6,1.4,1.5,1.9,2.5c0.4,1,0.6,2.2,0.6,3.5c0,1.3-0.2,2.5-0.6,3.5
			c-0.4,1-1,1.8-1.8,2.5c-0.6,0.5-1.4,0.8-2.2,1c-0.8,0.2-2.1,0.3-3.9,0.3H303H300.7z M302.1,180.1h1.9c1.5,0,2.6-0.1,3.2-0.3
			c0.6-0.2,1.2-0.5,1.6-0.9c0.6-0.6,1.1-1.3,1.4-2.1c0.3-0.9,0.5-1.8,0.5-2.9c0-1.1-0.2-2.1-0.5-3c-0.3-0.9-0.8-1.6-1.4-2.1
			c-0.5-0.4-1-0.7-1.7-0.9c-0.7-0.2-1.9-0.3-3.5-0.3h-0.3h-1.2V180.1z"/>
		
			<linearGradient id="SVGID_00000062194703778078911120000003138439467997403532_" gradientUnits="userSpaceOnUse" x1="314.7218" y1="173.611" x2="327.338" y2="173.611">
			<stop  offset="0.3879" style="stop-color:#FFFFFF"/>
			<stop  offset="0.7333" style="stop-color:#DDDDDD"/>
			<stop  offset="1" style="stop-color:#DDDDDD"/>
		</linearGradient>
		<path style="fill:url(#SVGID_00000062194703778078911120000003138439467997403532_);" d="M314.7,181.2l6.4-15.3l6.2,15.3h-1.5
			l-1.9-5h-6l-1.9,5H314.7z M318.5,175.1h5.1l-2.5-6.4L318.5,175.1z"/>
	</g>
</g>
</svg>
