<?xml version="1.0" encoding="utf-8"?>
<!-- Generator: Adobe Illustrator 26.0.3, SVG Export Plug-In . SVG Version: 6.00 Build 0)  -->
<svg version="1.1" id="Camada_1" xmlns="http://www.w3.org/2000/svg" xmlns:xlink="http://www.w3.org/1999/xlink" x="0px" y="0px"
	 viewBox="0 0 700 700" style="enable-background:new 0 0 700 700;" xml:space="preserve">
<style type="text/css">
	.st0{fill:#9A1B41;}
</style>
<path class="st0" d="M591.1,367.8c16.5-10.5,21.4-37.1,26.1-49.7l0.1-0.9l-1,0.1c-25.8,2.6-39.3,16.5-46.4,26.9
	c1.7-10.9,2.6-22,2.6-33.1c0-0.1,0-0.3,0-0.4l0.1,0.2c0,0,12.9-1.9,25-16c12.7-14.9,9.5-41.7,10.3-55.2l-0.2-0.9L607,239
	c-24.4,10.3-33,28.1-36.6,40.1c-1.4-9.6-3.3-19-5.9-28.3c2.5-1.3,12.3-7.3,19-22c8.1-17.8-2.4-42.7-5.4-55.9l-0.4-0.9l-0.7,0.6
	c-19.2,15.5-23.4,33.5-24,46c-3-6.7-6.3-13.2-10-19.6l0.1,0.1c0,0,10-8,13-25.8c3.3-18.8-12.7-39.8-18.8-51.4l-0.6-0.7l-0.6,0.8
	c-14.8,20.1-13.9,38.7-11.1,50.6c-2.2-2.9-4.6-5.7-6.9-8.5c-0.4-6.3-3.6-14.1-10.9-22.3c-8-9.1-23.5-22-50.4-20.3l-0.9,0.1l0.3,0.9
	c6.5,11.4,15.4,36.2,32.9,43.7c9.9,4.2,18.1,4.5,23.2,4.1c2.7,3.1,5.3,6.3,7.7,9.6c-0.2-0.1-0.5-0.2-0.7-0.3
	c-11.3-4.3-31-8.6-54.1,5.2l-0.8,0.5l0.7,0.7c11,7.1,30.3,25.1,49.4,23.6c9.7-0.7,16.7-3.7,21.1-6.3c4.4,7.7,8.3,15.6,11.7,23.7
	c-0.6-0.5-1.3-1-2-1.5c-10.1-7.2-28.5-16.5-55.1-8.7l-0.9,0.3l0.5,0.8c9.1,9.9,23.7,32.7,42.9,36.1c10.4,1.9,18.5,0.5,23.5-1.1
	c2.5,9.2,4.5,18.6,5.8,28.2c-0.1-0.1-0.1-0.1-0.1-0.2c-7.7-9.7-22.8-23.8-50.5-23.6h-1l0.2,0.9c6,12,13.7,38,31.3,46.6
	c9,4.5,16.8,5.5,22.1,5.5c0,0.2,0,0.4,0,0.5c0,11.4-1,22.8-2.8,34c-0.1-0.3-0.2-0.5-0.3-0.8c-4.5-11.6-14.8-29.5-41.3-37.5l-0.9-0.3
	l-0.1,1c2.2,13.3,1.9,40.3,16.1,53.8c7.4,7,14.7,10.3,19.7,11.9c-3.2,10.2-7.2,20.2-12,30c0-1-0.1-1.9-0.1-2.9
	c-0.8-12.4-5.1-32.6-27.8-48.3l-0.8-0.5l-0.3,0.9c-2,13.3-10.5,39-1.1,56.1c5.6,10.2,12.5,15.8,16.9,18.5
	c-5.8,9.1-12.4,18-19.6,26.5c0.2-0.8,0.3-1.6,0.5-2.5c2.3-12.7,2.9-34.2-16.2-55.8l-0.7-0.7l-0.6,0.8c-5.3,13-20.2,36.8-15,56.5
	c3.1,11.4,8.4,18.6,12.2,22.5c-1.1,1-2.1,2-3.2,3c-7.6,7-15.2,13.3-22.6,18.9c0.2-0.6,0.5-1.2,0.7-1.8c4.7-12.8,9.3-35.1-6.6-61
	l-0.6-0.9l-0.7,0.8c-7.9,12.6-27.9,34.6-26,56.1c1,11.2,4.5,19.2,7.6,24.1c-11,6.5-21.6,11.7-31.9,16.1c1-1.1,2-2.2,2.9-3.5
	c7.8-10.1,18.2-28.6,11.4-56.2l-0.2-1l-0.9,0.5c-10.6,8.9-34.6,22.9-39,42.5c-2.9,12.7-0.8,22.2,0.9,26.9c-11.5,3.8-22.3,6.6-32,9.2
	c-0.1,0-0.2,0-0.2,0.1c-0.1,0-0.2,0-0.2-0.1c-9.8-2.6-20.5-5.5-32-9.2c1.6-4.8,3.7-14.3,0.9-26.9c-4.4-19.6-28.4-33.6-39-42.5
	l-0.9-0.5l-0.2,1c-6.9,27.6,3.5,46.1,11.4,56.2c1,1.3,2,2.4,2.9,3.5c-10.2-4.3-20.9-9.6-31.9-16.1c3-5,6.6-13,7.6-24.1
	c1.9-21.4-18.1-43.5-26-56.1l-0.7-0.8l-0.5,0.9c-15.9,25.9-11.3,48.2-6.6,61c0.2,0.6,0.5,1.2,0.7,1.8c-7.5-5.6-15-11.9-22.6-18.9
	c-1.1-1-2.1-2-3.2-3c3.8-3.9,9.2-11.1,12.2-22.5c5.3-19.7-9.7-43.5-15-56.5l-0.6-0.8l-0.6,0.7c-19.1,21.5-18.5,43-16.2,55.8
	c0.2,0.9,0.3,1.7,0.5,2.5c-7.2-8.5-13.8-17.4-19.6-26.5c4.4-2.7,11.3-8.3,16.9-18.5c9.4-17.2,0.8-42.8-1.1-56.1l-0.3-0.9l-0.8,0.5
	c-22.7,15.7-27,35.9-27.8,48.3c-0.1,1-0.1,2-0.1,2.9c-4.8-9.8-8.8-19.8-12-30c5.1-1.6,12.3-4.8,19.7-11.9
	c14.2-13.5,13.9-40.5,16.1-53.8v-1l-0.9,0.3c-26.5,8-36.7,25.9-41.3,37.5c-0.1,0.3-0.2,0.6-0.3,0.8c-1.9-11.2-2.8-22.5-2.8-34
	c0-0.2,0-0.4,0-0.5c5.3,0,13.1-1,22.1-5.5c17.5-8.7,25.2-34.6,31.3-46.6l0.2-0.9h-1c-27.7-0.1-42.8,13.9-50.5,23.6
	c0,0.1-0.1,0.1-0.1,0.2c1.3-9.6,3.3-19,5.8-28.2c5.1,1.5,13.1,2.9,23.5,1.1c19.3-3.5,33.8-26.3,42.9-36.1l0.5-0.8l-0.9-0.3
	c-26.5-7.8-44.9,1.5-55.1,8.7c-0.7,0.5-1.3,1-2,1.5c3.4-8.1,7.3-16.1,11.7-23.7c4.5,2.6,11.5,5.5,21.1,6.3
	c19,1.4,38.3-16.5,49.4-23.6l0.7-0.7l-0.8-0.5c-23.2-13.8-42.8-9.5-54.1-5.2c-0.2,0.1-0.5,0.2-0.7,0.3c2.5-3.3,5.1-6.5,7.7-9.6
	c5.1,0.4,13.3,0.1,23.2-4.1c17.5-7.5,26.4-32.3,32.9-43.7l0.3-0.9l-0.9-0.1c-26.9-1.6-42.4,11.3-50.4,20.3
	c-7.3,8.2-10.5,16-10.9,22.3c-2.4,2.8-4.7,5.6-6.9,8.5c2.8-11.9,3.7-30.5-11.1-50.6l-0.6-0.8l-0.6,0.7c-6,11.7-22,32.6-18.8,51.4
	c3.1,17.8,13,25.8,13,25.8l0.1-0.1c-3.7,6.4-7,12.9-10,19.6c-0.6-12.5-4.8-30.5-24-46l-0.7-0.6l-0.4,0.9c-3,13.1-13.5,38-5.4,55.9
	c6.6,14.7,16.5,20.7,19,22c-2.6,9.2-4.5,18.7-5.9,28.3c-3.6-12-12.2-29.8-36.6-40.1l-0.9-0.4l-0.1,0.9c0.8,13.4-2.4,40.3,10.3,55.2
	c12,14.1,25,16,25,16l0.1-0.2c0,0.1,0,0.3,0,0.4c0,11.1,0.9,22.2,2.6,33.1c-7.1-10.4-20.6-24.3-46.4-26.9l-1-0.1l0.1,0.9
	c4.7,12.6,9.6,39.2,26.1,49.7c15,9.5,27.5,8.1,28.5,7.9c2.8,8.8,6.1,17.5,10,26c-10.1-7.4-26.7-15.4-50.9-10.2l-0.9,0.2l0.4,0.9
	c8.3,10.6,21.1,34.4,40.1,39.3c13.5,3.5,23.5,1.1,27.6-0.4c5.2,8.2,11,16.1,17.3,23.8c-12-5.2-31.2-9.7-55,1.7l-0.9,0.4l0.6,0.8
	c11,8.6,29.8,29.6,50.2,29.9c15.6,0.3,25.3-5.4,28.5-7.6c1,0.9,2,1.9,3,2.8c7,6.4,13.9,12.3,20.8,17.6c-13.4-3.5-34.9-5.4-58.4,11.6
	L168,513l0.8,0.7c13.1,6.9,36.5,25.3,57.8,21.9c20.2-3.3,29.3-14.4,29.3-14.4l-0.3-0.6c-0.1-0.2-0.2-0.4-0.3-0.6
	c9.1,5.4,17.9,10,26.5,13.9c-12.8,1.3-30.6,6.6-45.4,26.6l-0.6,0.8l0.9,0.4c13.6,2.5,39.7,12.2,57.6,3.1c11.9-6,17.9-13.9,20.5-18.1
	c6.4,2.1,12.7,3.9,18.6,5.6c-17,5-30.7,10.5-40,21l6.3,5.6c10-11.3,27.6-16.3,49.7-22.3c22.2,5.9,39.7,10.9,49.7,22.3l6.3-5.6
	c-9.3-10.5-23-16-40-21c5.9-1.7,12.1-3.5,18.6-5.6c2.6,4.2,8.6,12.1,20.4,18.1c18,9.1,44-0.6,57.6-3.1l0.9-0.4l-0.6-0.8
	c-14.8-19.9-32.6-25.3-45.4-26.6c8.6-3.9,17.4-8.5,26.5-13.9c-0.1,0.2-0.2,0.4-0.3,0.6l-0.3,0.6c0,0,9.1,11.1,29.3,14.4
	c21.3,3.4,44.7-14.9,57.8-21.9l0.8-0.7l-0.9-0.6c-23.5-16.9-45.1-15-58.4-11.6c6.9-5.3,13.8-11.1,20.8-17.6c1-0.9,2-1.9,3-2.8
	c3.2,2.2,12.9,7.9,28.5,7.6c20.4-0.3,39.2-21.3,50.2-29.9l0.6-0.8l-0.9-0.4c-23.8-11.4-43-6.9-55-1.7c6.3-7.7,12.1-15.7,17.3-23.8
	c4.1,1.4,14.1,3.9,27.6,0.4c18.9-4.9,31.7-28.8,40.1-39.3l0.4-0.9l-0.9-0.2c-24.1-5.1-40.8,2.8-50.9,10.2c3.9-8.5,7.2-17.2,10-26
	C563.6,375.8,576.1,377.3,591.1,367.8L591.1,367.8z M203.1,414.8c-1.7,24.2-2.3,40-3.6,49.7c-0.2-0.2-0.4-0.4-0.6-0.6
	C198.5,455.5,198,431.5,203.1,414.8L203.1,414.8z M178,369.9c-7.2,22.6-11.3,37.3-14.8,46c-0.1-0.2-0.2-0.4-0.3-0.6
	C164.3,407.9,169.3,384.6,178,369.9L178,369.9z M167.7,322c-12.8,18-21,30.3-27,37.7c-0.1-0.4-0.2-0.7-0.3-1.1
	C145,350.5,156,332.3,167.7,322L167.7,322z M171.9,268.6c-17.4,13.3-28.8,22.5-36.6,27.9c0-0.4,0-0.8,0.1-1.2
	C142.3,288.8,157.9,275,171.9,268.6L171.9,268.6z M190.6,223.3c-21.3,8.3-35.1,14.2-44.1,17c0.1-0.3,0.2-0.6,0.3-0.9
	C154.6,235.5,174.6,225.7,190.6,223.3L190.6,223.3z M215.1,186.5c-21.2,2.5-35.3,4.6-44.6,5.2c0.2-0.3,0.4-0.6,0.6-1
	C180.2,188.7,200.2,184.9,215.1,186.5L215.1,186.5z M226.4,131.6c-17.7,12-29.2,20.4-37.2,25.2l-0.6-0.5
	C195.3,150.6,211.9,137.3,226.4,131.6L226.4,131.6z M162.9,140.7c3.7,17.6,0.2,43.1-0.6,48.1c-0.1,0.1-0.1,0.2-0.2,0.3
	C161.5,180.1,162.3,165,162.9,140.7L162.9,140.7z M127,191.3c7.5,15.2,10.7,38.4,11.6,46.2c-0.1,0.3-0.2,0.6-0.3,0.9
	C135.5,229.5,132.4,214.5,127,191.3L127,191.3z M101.9,255.5c12.9,14.2,23.4,39.7,24.8,43.2c0,0.1,0,0.1,0,0.2
	C121.4,291.3,114.2,277.5,101.9,255.5L101.9,255.5z M96.9,330.1c15.7,9.3,32.5,29.1,36.1,33.5c0,0.1,0.1,0.3,0.1,0.4
	C125.8,358.2,114.9,347.1,96.9,330.1L96.9,330.1z M113.1,399.2c15.4,3.5,33.9,14.2,41.7,19c0.2,0.4,0.4,0.8,0.7,1.2
	C146.7,415.9,133.4,409.1,113.1,399.2L113.1,399.2z M144.7,460.6c17.4-0.3,40.4,6.8,48.4,9.5c0.2,0.2,0.5,0.5,0.7,0.7
	C184.1,469.4,168.7,465.7,144.7,460.6L144.7,460.6z M190,512.5c22.2-4.3,55.4,1.5,55.4,1.5C235.3,514.7,218,513.5,190,512.5z
	 M285.5,487.8c10.2,23.2,17.1,37.6,20.2,46.7c-0.1,0-0.2-0.1-0.3-0.1C302.4,529.4,289,506.3,285.5,487.8L285.5,487.8z M242.4,454.1
	c2.6,24.4,4.8,40.5,5.3,51c-0.3-0.2-0.6-0.4-1-0.6C244.6,494.5,240.3,471.4,242.4,454.1L242.4,454.1z M255.4,554.5
	c13.6-7.5,34-11.7,43.9-13.4c0.5,0.2,1,0.4,1.6,0.6C291.6,544.8,277,548.5,255.4,554.5L255.4,554.5z M509,512.5
	c-28,1-45.3,2.2-55.4,1.5C453.7,514,486.8,508.2,509,512.5z M456.6,454.1c2.1,17.2-2.2,40.4-4.4,50.3c-0.3,0.2-0.7,0.4-1,0.6
	C451.8,494.6,454,478.5,456.6,454.1L456.6,454.1z M413.6,487.8c-3.5,18.5-17,41.7-19.9,46.6c-0.1,0-0.2,0.1-0.3,0.1
	C396.4,525.4,403.3,511,413.6,487.8L413.6,487.8z M443.7,554.5c-21.6-6.1-36.2-9.7-45.5-12.8c0.5-0.2,1-0.4,1.6-0.6
	C409.6,542.8,430,547.1,443.7,554.5L443.7,554.5z M602.1,330.1c-18,17.1-28.9,28.1-36.1,33.9c0-0.1,0.1-0.3,0.1-0.4
	C569.7,359.2,586.4,339.4,602.1,330.1L602.1,330.1z M597.1,255.5c-12.3,22-19.5,35.9-24.8,43.4c0-0.1,0-0.1,0-0.2
	C573.7,295.2,584.3,269.6,597.1,255.5L597.1,255.5z M572,191.3c-5.5,23.2-8.5,38.2-11.3,47.1c-0.1-0.3-0.2-0.6-0.3-0.9
	C561.3,229.7,564.6,206.5,572,191.3L572,191.3z M536.2,140.7c0.5,24.3,1.4,39.4,0.7,48.4c-0.1-0.1-0.1-0.2-0.2-0.3
	C536,183.8,532.5,158.4,536.2,140.7L536.2,140.7z M472.6,131.6c14.5,5.7,31.1,19,37.7,24.7l-0.6,0.6
	C501.9,152,490.3,143.7,472.6,131.6L472.6,131.6z M483.9,186.5c15-1.6,34.9,2.2,44,4.3c0.2,0.3,0.4,0.6,0.6,1
	C519.2,191.1,505.1,189,483.9,186.5L483.9,186.5z M508.4,223.3c16.1,2.4,36,12.1,43.8,16.2c0.1,0.3,0.2,0.6,0.3,0.9
	C543.4,237.5,529.7,231.6,508.4,223.3L508.4,223.3z M527.1,268.6c14,6.4,29.6,20.2,36.5,26.7c0,0.4,0.1,0.8,0.1,1.2
	C555.9,291.1,544.5,281.9,527.1,268.6L527.1,268.6z M531.4,322c11.7,10.4,22.6,28.5,27.2,36.6c-0.1,0.4-0.2,0.7-0.3,1.1
	C552.4,352.3,544.2,340,531.4,322L531.4,322z M521.1,369.9c8.7,14.7,13.7,38,15.2,45.5c-0.1,0.2-0.2,0.4-0.3,0.6
	C532.4,407.2,528.2,392.5,521.1,369.9L521.1,369.9z M500.1,464c-0.2,0.2-0.4,0.4-0.6,0.6c-1.3-9.7-2-25.4-3.6-49.7
	C501,431.5,500.5,455.5,500.1,464L500.1,464z M554.4,460.6c-24,5.1-39.4,8.9-49.1,10.2c0.2-0.2,0.5-0.5,0.7-0.7
	C514,467.4,537,460.3,554.4,460.6L554.4,460.6z M586,399.3c-20.4,9.8-33.6,16.7-42.4,20.2c0.2-0.4,0.4-0.8,0.7-1.2
	C552,413.5,570.6,402.7,586,399.3L586,399.3z"/>
<g>
	<g>
		<path class="st0" d="M312.1,439.5h-15.2v-2.7c-1.3,2.4-5,3.7-11,3.7c-9.3,0-14-3.6-14-11v-14c0-3.1,1.1-5.9,3.4-8.2
			c2.3-2.3,6.8-5.2,13.7-8.7c4-2,6-3.6,6-4.8v-10.4c0-2.3-1-3.4-2.9-3.4c-2.2,0-3.4,2.8-3.4,8.4c0,1,0.1,2.5,0.2,4.5
			c0.2,2,0.2,3.5,0.2,4.5h-16.5v-14c0-9.4,6.8-14.1,20.5-14.1c12.8,0,19.1,4.9,19.1,14.7v55.5H312.1z M294.9,426.4v-18
			c-3.9,1-5.9,2.7-5.9,5.3v12.7c0,2.1,1,3.2,3.1,3.2C294,429.6,294.9,428.6,294.9,426.4z"/>
		<path class="st0" d="M356.2,439.5H339v-56.1c0-2.1-1-3.2-3-3.2s-3,1-3,3.1v56.2h-17v-69.9h17.2v2.3c2.3-1.9,5.8-2.8,10.6-2.8
			c3.1,0,6,0.8,8.6,2.5s3.9,4.2,3.9,7.4v60.5H356.2z"/>
		<path class="st0" d="M359.6,425.7v-41.8c0-9.8,6.8-14.7,20.4-14.7c5.3,0,9.9,1.1,13.9,3.4s6,5.9,6,10.7v43
			c0,9.4-6.6,14.1-19.9,14.1C366.4,440.5,359.6,435.6,359.6,425.7z M382.7,426.2v-42.8c0-2.3-1-3.4-2.9-3.4c-2,0-3,1.1-3,3.4v42.8
			c0,2.4,1,3.6,3,3.6C381.7,429.8,382.7,428.6,382.7,426.2z"/>
		<path class="st0" d="M403.2,411.4h17.2v14.8c0,2.4,1,3.6,2.9,3.6s2.9-2.3,2.9-6.8c0-5.9-1.2-9.7-3.6-11.4
			c-8.9-4.7-14.3-8-16.2-9.8c-1.8-1.9-2.8-4.7-2.8-8.4V384c0-9.8,6.7-14.7,20-14.7c13,0,19.4,4.7,19.4,14.1v13.8h-16.7l0.4-8.4
			c0-5.8-1.1-8.7-3.2-8.7s-3.2,1.8-3.2,5.5c0,3.8,0.5,6.6,1.4,8.5s6.2,5.2,15.7,9.9c4,2.8,6,6.6,6,11.3v10.5
			c0,9.8-6.8,14.7-20.3,14.7c-13.3,0-19.9-4.7-19.9-14.1L403.2,411.4L403.2,411.4z"/>
	</g>
	<g>
		<path class="st0" d="M321.7,360.9h-47.9V201h-18.3v-31.8c7,0,12.8-3,17.6-9s7.2-11.8,7.2-17.5h41.4V360.9z"/>
		<path class="st0" d="M331.6,323.6V183.2c0-28.3,18.8-42.4,56.4-42.4c36.9,0,55.4,14,55.4,42.1v140.4c0,12.6-5.2,22.3-15.6,29.2
			c-10.4,6.9-23.8,10.3-40.1,10.3c-16.8,0-30.4-3.4-40.7-10.2C336.8,345.9,331.6,336.2,331.6,323.6z M395.5,325.9V177.2
			c0-4.4-2.6-6.5-7.8-6.5c-5.5,0-8.2,2.2-8.2,6.5v148.6c0,4.4,2.7,6.5,8.2,6.5C392.9,332.4,395.5,330.2,395.5,325.9z"/>
	</g>
</g>
<g>
	<path class="st0" d="M259.7,274.8h-21.4v21.4H226v-21.4h-21.4v-12.3H226v-21.4h12.3v21.4h21.4V274.8z"/>
</g>
</svg>
