<?xml version="1.0" encoding="utf-8"?>
<!-- Generator: Adobe Illustrator 26.0.3, SVG Export Plug-In . SVG Version: 6.00 Build 0)  -->
<svg version="1.1" id="Camada_1" xmlns="http://www.w3.org/2000/svg" xmlns:xlink="http://www.w3.org/1999/xlink" x="0px" y="0px"
	 viewBox="0 0 700 700" style="enable-background:new 0 0 700 700;" xml:space="preserve">
<style type="text/css">
	.st0{fill:#9A1B41;fill-opacity:0.99;}
</style>
<g>
	<path class="st0" d="M439.7,98c-12.7,0-25.5,3.3-37.3,10.1l-266.9,154c-36,20.7-48.2,66.4-27.4,102.3l30.4,52.6v-54.4
		c0-41.1,34.4-74.2,77.2-74.2h317.6c23.6,0,44.7,10.1,58.9,26.1c1.4-14.9-1.7-30.5-9.8-44.5l-77.6-134.3
		C490.8,111.4,465.7,97.9,439.7,98L439.7,98z M472.5,178.7c5.7,0.1,11.2,3.1,14.2,8.4l14.4,25c4.7,8.1,1.9,18.4-6.2,23l-39.9,23
		c-8.1,4.7-18.4,1.9-23.1-6.2l-14.4-25c-4.7-8.1-1.9-18.4,6.2-23l39.9-23C466.5,179.4,469.5,178.7,472.5,178.7L472.5,178.7z
		 M216.3,298.7c-38.4,0-69.7,31.3-69.7,69.6v164.1c0,38.4,31.3,69.6,69.7,69.6h316c38.4,0,69.7-31.3,69.7-69.6v-164
		c0-38.4-31.3-69.6-69.7-69.6L216.3,298.7z M216.3,323.9h316c21.6,0,39.2,14.8,43.4,34.9H172.9C177.1,338.7,194.7,323.9,216.3,323.9
		L216.3,323.9z M171.9,418.9h404.8v113.4c0,24.8-19.6,44.4-44.4,44.4h-316c-24.8,0-44.4-19.6-44.4-44.4L171.9,418.9z M238.1,469.9
		c-5.2,0-9.3,4.2-9.3,9.3s4.2,9.3,9.3,9.3h132.2c5.2,0,9.3-4.2,9.3-9.3s-4.2-9.3-9.3-9.3H238.1z M238.1,500.1
		c-5.2,0-9.3,4.2-9.3,9.3c0,5.2,4.2,9.3,9.3,9.3h76.3c5.2,0,9.3-4.2,9.3-9.3c0-5.2-4.2-9.3-9.3-9.3L238.1,500.1L238.1,500.1z"/>
</g>
</svg>
