<?xml version="1.0" encoding="utf-8"?>
<!-- Generator: Adobe Illustrator 26.0.3, SVG Export Plug-In . SVG Version: 6.00 Build 0)  -->
<svg version="1.1" id="Camada_1" xmlns="http://www.w3.org/2000/svg" xmlns:xlink="http://www.w3.org/1999/xlink" x="0px" y="0px"
	 viewBox="0 0 700 700" style="enable-background:new 0 0 700 700;" xml:space="preserve">
<style type="text/css">
	.st0{fill:#9A1B41;}
</style>
<path class="st0" d="M359.9,522.6c9.5,9.5,9.5,24.9,0,34.4l-27.7,27.7c-4.6,4.6-10.7,7.1-17.2,7.1s-12.6-2.5-17.2-7.1
	c-9.5-9.5-9.5-24.9,0-34.4l27.7-27.7c4.7-4.7,11-7.1,17.2-7.1C348.9,515.5,355.1,517.9,359.9,522.6z M298.9,471.7
	c-6.2,0-12.5,2.4-17.2,7.1L254,506.5c-4.7,4.7-7.1,11-7.1,17.2s2.4,12.5,7.1,17.2c4.6,4.6,10.7,7.1,17.2,7.1s12.6-2.5,17.2-7.1
	l27.7-27.7c9.5-9.5,9.5-24.9,0-34.4C311.3,474.1,305.1,471.7,298.9,471.7z M255.1,427.9c-6.2,0-12.5,2.4-17.2,7.1l-27.7,27.7
	c-9.5,9.5-9.5,24.9,0,34.4s24.9,9.5,34.4,0l27.7-27.7c9.5-9.5,9.5-24.9,0-34.4C267.6,430.3,261.3,427.9,255.1,427.9L255.1,427.9z
	 M211.3,384.1c-6.2,0-12.5,2.4-17.2,7.1l-23.4,23.4c-0.2,0.3-0.5,0.7-0.8,0.9c-0.2,0.2-0.5,0.4-0.7,0.6l-2.7,2.7
	c-4.6,4.6-7.1,10.7-7.1,17.2s2.5,12.6,7.1,17.2c9.5,9.5,24.9,9.5,34.4,0l27.7-27.7c9.5-9.5,9.5-24.9,0-34.4
	C223.8,386.5,217.5,384.1,211.3,384.1L211.3,384.1z M535.6,396c-0.2-0.1-0.3-0.2-0.5-0.3c-0.5-0.4-1-0.9-1.3-1.5L416.1,276.5
	c-2.6-2.6-6.1-4.1-9.9-4.1c-3.7,0-7.2,1.4-9.9,4.1L362.8,310c-11.8,11.8-27.5,18.3-44.2,18.3s-32.4-6.5-44.2-18.3
	c-11.8-11.8-18.3-27.5-18.3-44.2s6.5-32.4,18.3-44.2l59.5-59.5c-6.3-6.3-13-12-19.8-17.2c-31.9-23.9-68.1-33.8-104.8-28.5
	c-42.1,6.1-78.5,31-99.6,68.3C88,223.1,85.3,268.4,102.4,309c12.6,30,33.7,60.9,62.9,92.2l19.4-19.4c7.1-7.1,16.5-11,26.6-11
	c10,0,19.5,3.9,26.6,11s11,16.5,11,26.6c0,2.3-0.2,4.6-0.6,6.8c11.8-2.1,24.3,1.3,33.4,10.4c7.1,7.1,11,16.5,11,26.6
	c0,2.3-0.2,4.6-0.6,6.8c11.8-2.2,24.3,1.3,33.4,10.4s12.5,21.7,10.4,33.4c11.8-2.2,24.3,1.3,33.4,10.4c13.8,13.8,14.6,35.7,2.5,50.5
	l0.9,0.9c9.5,9.5,24.9,9.5,34.4,0s9.5-24.9,0-34.4l0,0L335.9,459c-2.6-2.6-2.6-6.8,0-9.4s6.8-2.6,9.4,0l57.3,57.3l0,0l13.8,13.8l0,0
	c9.5,9.5,24.9,9.5,34.4,0c9.5-9.5,9.5-24.9,0-34.4l-71.2-71.2c-2.6-2.6-2.6-6.8,0-9.4s6.8-2.6,9.4,0l57.3,57.3l0,0l13.8,13.8
	c9.5,9.5,24.9,9.5,34.4,0s9.5-24.9,0-34.4l-13.8-13.8l-57.3-57.3c-2.6-2.6-2.6-6.8,0-9.4s6.8-2.6,9.4,0l57.3,57.3l13.8,13.8
	c4.6,4.6,10.7,7.1,17.2,7.1l0,0c6.5,0,12.6-2.6,17.2-7.2c9.4-9.5,9.3-25-0.3-34.6L535.6,396z M477.2,116.4
	c-36.6-5.3-72.9,4.6-104.8,28.5c-8.5,6.4-16.7,13.7-24.3,21.8l-0.1,0.1c0,0,0,0-0.1,0.1l-64.2,64.2c-19.2,19.2-19.2,50.5,0,69.7
	s50.5,19.2,69.7,0l33.5-33.5c5.1-5.1,12-8,19.2-8c7.3,0,14.1,2.8,19.2,8l113.3,113.3c16.3-20.8,36.4-50,45.4-71.4
	c17.1-40.7,14.4-86-7.3-124.4C555.7,147.3,519.4,122.4,477.2,116.4L477.2,116.4z"/>
</svg>
