<?xml version="1.0" encoding="utf-8"?>
<!-- Generator: Adobe Illustrator 26.0.3, SVG Export Plug-In . SVG Version: 6.00 Build 0)  -->
<svg version="1.1" id="Camada_1" xmlns="http://www.w3.org/2000/svg" xmlns:xlink="http://www.w3.org/1999/xlink" x="0px" y="0px"
	 viewBox="0 0 1200 1200" style="enable-background:new 0 0 1200 1200;" xml:space="preserve">
<style type="text/css">
	.st0{fill:#9A1B41;}
</style>
<path class="st0" d="M1044.5,741c75.6-81.2,73.9-208.4-5.2-287.5L746.4,160.7c-80.9-80.9-212-80.9-292.9,0l0,0L160.7,453.5
	c-79.2,79.2-80.8,206.5-4.9,287.8c17.7,24.4,39.5,46.1,63.7,63.9l234.2,234.2c80.9,80.9,212,80.9,292.9,0L980,806
	C1004.4,788,1026.6,765.9,1044.5,741z M916.2,723.2c-40,27.2-87.6,35.9-117.1,8.2l-12.8-13.7l-14.1-15.4
	c-62.8-68.2-104.2-96.9-171.7-97.1c65.3-0.1,104.4-25.6,165.8-90.9l28.2-30.5c56.4-64.9,193.9,27.1,193.9,121.4l0,0
	c0,23.9-8.9,47.7-23,68.9L916.2,723.2z M283.1,722.4l-48.2-48.2c-14.2-21.1-23.1-45-23.1-69c0-91.8,130.4-181.5,189.3-126.2
	l28.2,30.4c61.5,66.4,104.4,95.8,170.7,95.8c-63.5-0.1-103.8,25.1-160.2,84.5l-32.9,35.5C376.9,759.6,325.6,751.4,283.1,722.4z
	 M526.8,233.9c40.4-40.4,106-40.4,146.5,0l0,0L801,361.7c-28,7.4-54.7,22.5-78.2,46.9L692.1,442L677,457.7c-33.2,33.3-52.4,44-77,44
	c-26.4,0-48.6-13.9-86.4-53.6l-31.1-33.6c-24.4-28.2-52.9-45.3-83.1-53.3L526.8,233.9z M673.2,966.1c-40.4,40.4-106,40.4-146.5,0
	L407,846.4c25.1-8,48.9-22.5,70.1-44.6l28.7-31.1c43.4-47.2,65-62,94.1-61.9c25.7,0.1,45.9,11.8,80.3,47.1l37.4,40.1
	c22.2,25.6,47.8,42.1,75,50.9L673.2,966.1z"/>
</svg>
